<?xml version="1.0" encoding="UTF-8" standalone="no"?>
<!DOCTYPE svg PUBLIC "-//W3C//DTD SVG 20010904//EN"
              "http://www.w3.org/TR/2001/REC-SVG-20010904/DTD/svg10.dtd">

<svg xmlns="http://www.w3.org/2000/svg"
     width="6.4in" height="3.6in"
     viewBox="0 0 1920 1080">
  <path id="Selection #2"
        fill="none" stroke="black" stroke-width="1"
        d="M 1072.00,778.00
           C 1077.76,771.22 1082.66,770.91 1091.00,771.00
             1094.26,771.04 1096.97,771.14 1100.00,772.57
             1107.00,775.87 1118.42,788.57 1123.00,795.00
             1116.85,795.00 1097.54,795.90 1093.00,793.69
             1086.02,790.29 1084.93,783.61 1072.00,778.00 Z
           M 1061.00,775.00
           C 1075.44,778.90 1081.50,787.53 1088.30,800.00
             1092.01,806.79 1094.43,811.30 1096.00,819.00
             1098.04,817.56 1099.55,816.39 1102.00,815.65
             1111.21,812.83 1116.09,819.87 1117.53,828.00
             1119.09,836.83 1113.00,849.09 1104.00,851.44
             1094.45,853.95 1085.16,847.57 1081.36,839.00
             1076.47,827.96 1080.35,819.32 1093.00,819.00
             1085.12,802.26 1084.68,795.27 1068.00,784.00
             1068.00,784.00 1070.68,793.00 1070.68,793.00
             1072.57,804.38 1068.23,821.93 1065.00,833.00
             1067.94,833.03 1071.16,832.90 1073.79,834.45
             1080.04,838.16 1078.16,848.82 1075.00,854.00
             1070.52,861.34 1061.45,865.75 1053.00,863.20
             1045.08,860.81 1040.86,853.99 1040.19,846.00
             1039.22,834.49 1048.27,821.83 1062.00,831.00
             1062.00,831.00 1067.63,800.00 1067.63,800.00
             1067.63,800.00 1061.00,775.00 1061.00,775.00 Z
           M 1110.00,824.00
           C 1110.00,824.00 1109.00,839.00 1109.00,839.00
             1114.90,834.01 1114.27,829.88 1110.00,824.00 Z
           M 1073.00,844.00
           C 1073.00,844.00 1071.00,844.00 1071.00,844.00
             1071.00,844.00 1064.00,857.00 1064.00,857.00
             1070.83,854.65 1072.61,850.91 1073.00,844.00 Z" />
</svg>
