<?xml version="1.0" encoding="UTF-8" standalone="no"?>
<!DOCTYPE svg PUBLIC "-//W3C//DTD SVG 20010904//EN"
              "http://www.w3.org/TR/2001/REC-SVG-20010904/DTD/svg10.dtd">

<svg xmlns="http://www.w3.org/2000/svg"
     width="0.276667in" height="0.313333in"
     viewBox="0 0 83 94">
  <path id="Selection #2"
        fill="none" stroke="black" stroke-width="1"
        d="M 32.00,7.00
           C 37.75,-0.18 43.51,-0.11 52.00,0.00
             54.99,0.04 57.24,0.07 60.00,1.45
             64.90,3.90 79.56,19.19 83.00,24.00
             83.00,24.00 62.00,24.00 62.00,24.00
             58.99,24.00 55.77,24.21 53.00,22.83
             45.21,18.93 44.59,10.68 32.00,7.00 Z
           M 21.00,4.00
           C 36.84,8.52 43.34,19.18 50.25,33.00
             53.33,39.17 54.59,41.08 56.00,48.00
             66.48,39.65 75.29,44.36 77.53,57.00
             79.09,65.80 72.85,78.16 64.00,80.57
             53.73,83.37 43.84,75.22 40.55,66.00
             38.29,59.67 38.86,51.71 46.02,48.89
             48.23,48.02 50.66,48.05 53.00,48.00
             46.30,32.79 44.15,21.59 28.00,13.00
             28.00,13.00 30.68,22.00 30.68,22.00
             32.50,32.95 28.11,51.27 25.00,62.00
             28.20,62.01 32.09,61.71 34.89,63.74
             40.06,67.73 38.03,78.15 34.89,83.00
             30.17,90.77 20.85,94.99 12.00,91.89
             2.39,88.54 -1.65,77.34 0.93,68.00
             2.65,61.76 7.78,55.20 15.00,56.57
             17.83,57.11 19.69,58.43 22.00,60.00
             23.87,51.73 28.33,36.19 27.68,28.00
             26.76,16.54 21.89,13.80 21.00,4.00 Z
           M 69.00,52.00
           C 69.00,52.00 69.66,62.00 69.66,62.00
             69.66,62.00 69.00,69.00 69.00,69.00
             75.10,63.47 75.16,57.42 69.00,52.00 Z
           M 33.00,73.00
           C 33.00,73.00 31.00,73.00 31.00,73.00
             31.00,73.00 23.00,87.00 23.00,87.00
             30.46,83.60 32.79,81.28 33.00,73.00 Z" />
</svg>
